<?xml version="1.0" standalone="no"?>
<!DOCTYPE svg PUBLIC "-//W3C//DTD SVG 20010904//EN"
 "http://www.w3.org/TR/2001/REC-SVG-20010904/DTD/svg10.dtd">
<svg version="1.0" xmlns="http://www.w3.org/2000/svg"
 width="3584.000000pt" height="572.000000pt" viewBox="0 0 3584.000000 572.000000"
 preserveAspectRatio="xMidYMid meet">

<g transform="translate(0.000000,572.000000) scale(0.100000,-0.100000)"
fill="#000000" stroke="none">
<path d="M14260 5150 l0 -560 -665 0 -665 0 0 -25 c0 -20 -5 -25 -25 -25 -25
0 -25 -1 -25 -80 0 -73 -2 -80 -20 -80 -18 0 -20 -7 -20 -85 0 -78 -2 -85 -20
-85 -18 0 -20 -7 -20 -85 0 -78 -2 -85 -20 -85 -18 0 -20 -7 -20 -80 0 -73 -2
-80 -20 -80 -18 0 -20 -7 -20 -85 0 -78 -2 -85 -20 -85 -18 0 -20 -7 -20 -60
0 -57 -1 -60 -25 -60 -25 0 -25 -1 -25 -85 0 -78 -2 -85 -20 -85 -18 0 -20 -7
-20 -85 0 -78 -2 -85 -20 -85 -18 0 -20 -7 -20 -80 0 -73 -2 -80 -20 -80 -18
0 -20 -7 -20 -85 0 -78 -2 -85 -20 -85 -18 0 -20 -7 -20 -85 0 -78 -2 -85 -20
-85 -17 0 -20 -7 -20 -40 0 -36 -2 -40 -25 -40 -22 0 -25 4 -25 40 0 33 -3 40
-20 40 -18 0 -20 7 -20 85 0 78 -2 85 -20 85 -18 0 -20 7 -20 85 0 78 -2 85
-20 85 -18 0 -20 7 -20 60 0 53 -2 60 -20 60 -18 0 -20 7 -20 85 0 78 -2 85
-20 85 -18 0 -20 7 -20 80 0 79 0 80 -25 80 -24 0 -25 2 -25 65 0 58 -2 65
-20 65 -18 0 -20 7 -20 85 0 78 -2 85 -20 85 -18 0 -20 7 -20 60 0 53 -2 60
-20 60 -18 0 -20 7 -20 85 0 78 -2 85 -20 85 -18 0 -20 7 -20 80 0 73 -2 80
-20 80 -18 0 -20 7 -20 65 0 63 -1 65 -25 65 -24 0 -25 3 -25 60 l0 60 -435 0
-435 0 0 -60 c0 -53 -2 -60 -20 -60 -18 0 -20 -7 -20 -85 0 -78 -2 -85 -20
-85 -18 0 -20 -7 -20 -60 0 -57 -1 -60 -25 -60 -25 0 -25 -1 -25 -85 0 -78 -2
-85 -20 -85 -18 0 -20 -7 -20 -60 0 -53 -2 -60 -20 -60 -18 0 -20 -7 -20 -85
0 -78 -2 -85 -20 -85 -18 0 -20 -7 -20 -65 0 -58 -2 -65 -20 -65 -18 0 -20 -7
-20 -80 0 -73 -2 -80 -20 -80 -18 0 -20 -7 -20 -85 0 -84 0 -85 -25 -85 -24 0
-25 -3 -25 -60 0 -53 -2 -60 -20 -60 -18 0 -20 -7 -20 -85 0 -78 -2 -85 -20
-85 -18 0 -20 -7 -20 -65 0 -58 -2 -65 -20 -65 -18 0 -20 -7 -20 -60 0 -53 -2
-60 -20 -60 -17 0 -20 7 -20 40 0 33 -3 40 -20 40 -18 0 -20 7 -20 85 0 84 0
85 -25 85 -25 0 -25 1 -25 85 0 78 -2 85 -20 85 -18 0 -20 7 -20 80 0 73 -2
80 -20 80 -18 0 -20 7 -20 85 0 78 -2 85 -20 85 -18 0 -20 7 -20 60 0 53 -2
60 -20 60 -18 0 -20 7 -20 85 0 78 -2 85 -20 85 -18 0 -20 7 -20 85 0 84 0 85
-25 85 -25 0 -25 1 -25 80 0 73 -2 80 -20 80 -18 0 -20 7 -20 85 0 78 -2 85
-20 85 -18 0 -20 7 -20 85 0 78 -2 85 -20 85 -18 0 -20 7 -20 80 0 73 -2 80
-20 80 -15 0 -20 7 -20 25 l0 25 -520 0 -520 0 0 -45 c0 -38 3 -45 20 -45 18
0 20 -7 20 -60 0 -53 2 -60 20 -60 18 0 20 -7 20 -65 0 -58 2 -65 20 -65 18 0
20 -7 20 -80 0 -73 2 -80 20 -80 18 0 20 -7 20 -65 0 -58 2 -65 20 -65 18 0
20 -7 20 -60 0 -57 1 -60 25 -60 25 0 25 -1 25 -85 0 -78 2 -85 20 -85 18 0
20 -7 20 -65 0 -58 2 -65 20 -65 18 0 20 -7 20 -60 0 -53 2 -60 20 -60 18 0
20 -7 20 -65 0 -58 2 -65 20 -65 18 0 20 -7 20 -80 0 -73 2 -80 20 -80 18 0
20 -7 20 -65 0 -63 1 -65 25 -65 24 0 25 -3 25 -60 0 -53 2 -60 20 -60 18 0
20 -7 20 -65 0 -58 2 -65 20 -65 18 0 20 -7 20 -80 0 -73 2 -80 20 -80 18 0
20 -7 20 -65 0 -58 2 -65 20 -65 18 0 20 -7 20 -60 0 -53 2 -60 20 -60 18 0
20 -7 20 -65 0 -63 1 -65 25 -65 25 0 25 -1 25 -85 0 -78 2 -85 20 -85 18 0
20 -7 20 -60 0 -53 2 -60 20 -60 18 0 20 -7 20 -65 0 -58 2 -65 20 -65 18 0
20 -7 20 -60 0 -53 2 -60 20 -60 18 0 20 -7 20 -85 0 -78 2 -85 20 -85 17 0
20 -7 20 -40 l0 -40 565 0 565 0 0 60 c0 53 2 60 20 60 18 0 20 7 20 85 0 78
2 85 20 85 18 0 20 7 20 85 0 78 2 85 20 85 18 0 20 7 20 60 0 57 1 60 25 60
25 0 25 1 25 85 0 78 2 85 20 85 18 0 20 7 20 85 0 78 2 85 20 85 18 0 20 7
20 60 0 53 2 60 20 60 18 0 20 7 20 85 0 78 2 85 20 85 18 0 20 7 20 80 0 73
2 80 20 80 18 0 20 7 20 65 0 63 1 65 25 65 23 0 25 4 25 40 0 33 3 40 20 40
18 0 20 -7 20 -60 0 -53 2 -60 20 -60 18 0 20 -7 20 -65 0 -58 2 -65 20 -65
18 0 20 -7 20 -80 0 -73 2 -80 20 -80 18 0 20 -7 20 -65 0 -58 2 -65 20 -65
18 0 20 -7 20 -85 0 -84 0 -85 25 -85 24 0 25 -3 25 -60 0 -53 2 -60 20 -60
18 0 20 -7 20 -85 0 -78 2 -85 20 -85 18 0 20 -7 20 -60 0 -53 2 -60 20 -60
18 0 20 -7 20 -85 0 -78 2 -85 20 -85 18 0 20 -7 20 -60 0 -53 2 -60 20 -60
18 0 20 -7 20 -65 0 -63 1 -65 25 -65 18 0 25 -5 25 -20 0 -20 7 -20 540 -20
533 0 540 0 540 20 0 13 7 20 20 20 18 0 20 7 20 85 0 78 2 85 20 85 18 0 20
7 20 60 0 53 2 60 20 60 18 0 20 7 20 85 0 84 0 85 25 85 24 0 25 3 25 60 0
53 2 60 20 60 18 0 20 7 20 65 0 58 2 65 20 65 18 0 20 7 20 85 0 78 2 85 20
85 18 0 20 7 20 60 0 53 2 60 20 60 18 0 20 7 20 65 0 58 2 65 20 65 18 0 20
7 20 80 0 79 0 80 25 80 24 0 25 2 25 65 0 58 2 65 20 65 18 0 20 7 20 60 0
53 2 60 20 60 18 0 20 7 20 85 0 78 2 85 20 85 18 0 20 7 20 60 0 53 2 60 20
60 18 0 20 7 20 85 0 78 2 85 20 85 18 0 20 7 20 65 0 63 1 65 25 65 24 0 25
3 25 60 l0 60 290 0 290 0 0 -790 c0 -783 0 -790 20 -790 18 0 20 -7 20 -85 0
-78 2 -85 20 -85 17 0 20 -7 20 -40 0 -33 3 -40 20 -40 17 0 20 -7 20 -45 0
-41 2 -45 25 -45 18 0 25 -5 25 -20 0 -13 7 -20 20 -20 17 0 20 -7 20 -40 0
-33 3 -40 20 -40 13 0 20 -7 20 -20 0 -17 7 -20 40 -20 33 0 40 -3 40 -20 0
-13 7 -20 20 -20 15 0 20 -7 20 -25 0 -23 4 -25 45 -25 38 0 45 -3 45 -20 0
-18 7 -20 60 -20 53 0 60 -2 60 -20 0 -19 7 -20 145 -20 138 0 145 -1 145 -20
0 -20 7 -20 525 -20 l525 0 0 460 0 460 -460 0 -460 0 0 685 0 685 460 0 460
0 0 440 0 440 -460 0 -460 0 0 560 0 560 -500 0 -500 0 0 -560z"/>
<path d="M16510 3565 l0 -2145 500 0 500 0 0 960 c0 953 0 960 20 960 18 0 20
7 20 60 0 53 2 60 20 60 17 0 20 7 20 40 0 33 3 40 20 40 17 0 20 7 20 45 0
41 2 45 25 45 18 0 25 5 25 20 0 13 7 20 20 20 13 0 20 7 20 20 0 17 7 20 40
20 33 0 40 3 40 20 0 17 7 20 40 20 33 0 40 3 40 20 0 19 7 20 170 20 163 0
170 -1 170 -20 0 -17 7 -20 40 -20 33 0 40 -3 40 -20 0 -13 7 -20 20 -20 13 0
20 -7 20 -20 0 -13 7 -20 20 -20 13 0 20 -7 20 -20 0 -15 7 -20 25 -20 18 0
25 -5 25 -20 0 -13 7 -20 20 -20 18 0 20 -7 20 -65 0 -58 2 -65 20 -65 20 0
20 -7 20 -1020 l0 -1020 500 0 500 0 0 1185 c0 1178 0 1185 -20 1185 -18 0
-20 7 -20 85 0 78 -2 85 -20 85 -18 0 -20 7 -20 65 0 63 -1 65 -25 65 -22 0
-25 4 -25 40 0 33 -3 40 -20 40 -17 0 -20 7 -20 40 0 33 -3 40 -20 40 -13 0
-20 7 -20 20 0 13 -7 20 -20 20 -17 0 -20 7 -20 45 0 38 -3 45 -20 45 -13 0
-20 7 -20 20 0 13 -7 20 -20 20 -13 0 -20 7 -20 20 0 15 -7 20 -25 20 -18 0
-25 5 -25 20 0 17 -7 20 -40 20 -33 0 -40 3 -40 20 0 13 -7 20 -20 20 -15 0
-20 7 -20 25 0 23 -4 25 -40 25 -33 0 -40 3 -40 20 0 17 -7 20 -45 20 -38 0
-45 3 -45 20 0 18 -7 20 -80 20 -73 0 -80 2 -80 20 0 20 -7 20 -275 20 -268 0
-275 0 -275 -20 0 -18 -7 -20 -60 -20 -53 0 -60 -2 -60 -20 0 -18 -7 -20 -65
-20 -58 0 -65 -2 -65 -20 0 -13 -7 -20 -20 -20 -15 0 -20 -7 -20 -25 0 -22 -4
-25 -40 -25 -33 0 -40 -3 -40 -20 0 -13 -7 -20 -20 -20 -13 0 -20 -7 -20 -20
0 -13 -7 -20 -20 -20 -13 0 -20 -7 -20 -20 0 -15 -7 -20 -25 -20 -18 0 -25 -5
-25 -20 0 -13 -7 -20 -20 -20 -13 0 -20 -7 -20 -20 0 -13 -7 -20 -20 -20 -15
0 -20 -7 -20 -25 0 -18 -5 -25 -20 -25 -20 0 -20 7 -20 710 l0 710 -500 0
-500 0 0 -2145z"/>
<path d="M1340 4690 c0 -19 -7 -20 -105 -20 -98 0 -105 -1 -105 -20 0 -18 -7
-20 -60 -20 -53 0 -60 -2 -60 -20 0 -17 -7 -20 -40 -20 -36 0 -40 -2 -40 -25
0 -23 -4 -25 -45 -25 -38 0 -45 -3 -45 -20 0 -17 -7 -20 -40 -20 -33 0 -40 -3
-40 -20 0 -13 -7 -20 -20 -20 -13 0 -20 -7 -20 -20 0 -17 -7 -20 -45 -20 -38
0 -45 -3 -45 -20 0 -13 -7 -20 -20 -20 -13 0 -20 -7 -20 -20 0 -13 -7 -20 -20
-20 -15 0 -20 -7 -20 -25 0 -22 -4 -25 -40 -25 -33 0 -40 -3 -40 -20 0 -13 -7
-20 -20 -20 -17 0 -20 -7 -20 -40 0 -36 -2 -40 -25 -40 -18 0 -25 -5 -25 -20
0 -13 -7 -20 -20 -20 -13 0 -20 -7 -20 -20 0 -13 -7 -20 -20 -20 -15 0 -20 -7
-20 -25 0 -18 -5 -25 -20 -25 -17 0 -20 -7 -20 -40 0 -33 -3 -40 -20 -40 -17
0 -20 -7 -20 -40 0 -33 -3 -40 -20 -40 -17 0 -20 -7 -20 -45 0 -41 -2 -45 -25
-45 -22 0 -25 -4 -25 -40 0 -33 -3 -40 -20 -40 -18 0 -20 -7 -20 -60 0 -53 -2
-60 -20 -60 -19 0 -20 -7 -20 -105 0 -98 -1 -105 -20 -105 -20 0 -20 -7 -20
-270 0 -263 0 -270 20 -270 18 0 20 -7 20 -85 0 -78 2 -85 20 -85 18 0 20 -7
20 -65 0 -58 2 -65 20 -65 18 0 20 -7 20 -60 0 -57 1 -60 25 -60 23 0 25 -4
25 -40 0 -33 3 -40 20 -40 15 0 20 -7 20 -25 0 -18 5 -25 20 -25 17 0 20 -7
20 -40 0 -33 3 -40 20 -40 13 0 20 -7 20 -20 0 -13 7 -20 20 -20 17 0 20 -7
20 -40 0 -33 3 -40 20 -40 15 0 20 -7 20 -25 0 -20 5 -25 25 -25 18 0 25 -5
25 -20 0 -13 7 -20 20 -20 13 0 20 -7 20 -20 0 -13 7 -20 20 -20 13 0 20 -7
20 -20 0 -13 7 -20 20 -20 13 0 20 -7 20 -20 0 -13 7 -20 20 -20 13 0 20 -7
20 -20 0 -17 7 -20 45 -20 41 0 45 -2 45 -25 0 -18 5 -25 20 -25 13 0 20 -7
20 -20 0 -17 7 -20 40 -20 33 0 40 -3 40 -20 0 -17 7 -20 40 -20 33 0 40 -3
40 -20 0 -17 7 -20 45 -20 38 0 45 -3 45 -20 0 -18 7 -20 60 -20 53 0 60 -2
60 -20 0 -18 7 -20 85 -20 84 0 85 0 85 -25 l0 -25 375 0 375 0 0 25 c0 25 1
25 85 25 78 0 85 2 85 20 0 18 7 20 60 20 53 0 60 2 60 20 0 17 7 20 40 20 33
0 40 3 40 20 0 15 7 20 25 20 18 0 25 -5 25 -20 0 -13 7 -20 20 -20 19 0 20
-7 20 -145 0 -138 -1 -145 -20 -145 -18 0 -20 -7 -20 -65 0 -63 -1 -65 -25
-65 -22 0 -25 -4 -25 -40 0 -33 -3 -40 -20 -40 -13 0 -20 -7 -20 -20 0 -13 -7
-20 -20 -20 -13 0 -20 -7 -20 -20 0 -13 -7 -20 -20 -20 -15 0 -20 -7 -20 -25
0 -18 -5 -25 -20 -25 -13 0 -20 -7 -20 -20 0 -13 -7 -20 -20 -20 -13 0 -20 -7
-20 -20 0 -17 -7 -20 -45 -20 -38 0 -45 -3 -45 -20 0 -17 -7 -20 -40 -20 -33
0 -40 -3 -40 -20 0 -19 -7 -20 -250 -20 -243 0 -250 1 -250 20 0 17 -7 20 -40
20 -33 0 -40 3 -40 20 0 17 -7 20 -45 20 -38 0 -45 3 -45 20 0 13 -7 20 -20
20 -13 0 -20 7 -20 20 0 13 -7 20 -20 20 -15 0 -20 7 -20 25 0 18 -5 25 -20
25 -13 0 -20 7 -20 20 0 13 -7 20 -20 20 -17 0 -20 7 -20 40 0 36 -2 40 -25
40 -22 0 -25 4 -25 40 0 33 -3 40 -20 40 -17 0 -20 7 -20 45 0 38 -3 45 -20
45 -13 0 -20 -7 -20 -20 0 -18 -7 -20 -85 -20 -84 0 -85 0 -85 -25 0 -25 -1
-25 -80 -25 -73 0 -80 -2 -80 -20 0 -18 -7 -20 -85 -20 -78 0 -85 -2 -85 -20
0 -18 -7 -20 -85 -20 -78 0 -85 -2 -85 -20 0 -18 -7 -20 -60 -20 -53 0 -60 -2
-60 -20 0 -18 -7 -20 -65 -20 l-65 0 0 -65 c0 -63 1 -65 25 -65 23 0 25 -4 25
-40 0 -33 3 -40 20 -40 18 0 20 -7 20 -65 0 -58 2 -65 20 -65 13 0 20 -7 20
-20 0 -13 7 -20 20 -20 17 0 20 -7 20 -40 0 -33 3 -40 20 -40 13 0 20 -7 20
-20 0 -13 7 -20 20 -20 17 0 20 -7 20 -45 0 -41 2 -45 25 -45 18 0 25 -5 25
-20 0 -13 7 -20 20 -20 13 0 20 -7 20 -20 0 -13 7 -20 20 -20 13 0 20 -7 20
-20 0 -13 7 -20 20 -20 13 0 20 -7 20 -20 0 -13 7 -20 20 -20 13 0 20 -7 20
-20 0 -17 7 -20 45 -20 41 0 45 -2 45 -25 0 -18 5 -25 20 -25 13 0 20 -7 20
-20 0 -17 7 -20 40 -20 33 0 40 -3 40 -20 0 -17 7 -20 40 -20 33 0 40 -3 40
-20 0 -17 7 -20 45 -20 38 0 45 -3 45 -20 0 -18 7 -20 60 -20 53 0 60 -2 60
-20 0 -18 7 -20 85 -20 84 0 85 0 85 -25 l0 -25 105 0 c98 0 105 -1 105 -20 0
-20 7 -20 290 -20 283 0 290 0 290 20 0 19 7 20 105 20 l105 0 0 25 c0 24 3
25 60 25 53 0 60 2 60 20 0 18 7 20 65 20 58 0 65 2 65 20 0 17 7 20 40 20 33
0 40 3 40 20 0 17 7 20 45 20 38 0 45 3 45 20 0 17 7 20 40 20 33 0 40 3 40
20 0 13 7 20 20 20 15 0 20 7 20 25 0 18 5 25 20 25 13 0 20 7 20 20 0 17 7
20 45 20 38 0 45 3 45 20 0 13 7 20 20 20 13 0 20 7 20 20 0 13 7 20 20 20 13
0 20 7 20 20 0 13 7 20 20 20 13 0 20 7 20 20 0 13 7 20 20 20 17 0 20 7 20
45 0 38 3 45 20 45 13 0 20 7 20 20 0 15 7 20 25 20 23 0 25 4 25 40 0 33 3
40 20 40 17 0 20 7 20 45 0 38 3 45 20 45 17 0 20 7 20 40 0 33 3 40 20 40 18
0 20 7 20 60 0 53 2 60 20 60 18 0 20 7 20 85 0 78 2 85 20 85 20 0 20 7 20
1690 l0 1690 -60 0 c-57 0 -60 -1 -60 -25 0 -25 -1 -25 -85 -25 -78 0 -85 -2
-85 -20 0 -18 -7 -20 -80 -20 -73 0 -80 -2 -80 -20 0 -18 -7 -20 -85 -20 -78
0 -85 -2 -85 -20 0 -19 -7 -20 -105 -20 -98 0 -105 1 -105 20 0 13 -7 20 -20
20 -13 0 -20 7 -20 20 0 17 -7 20 -40 20 -33 0 -40 3 -40 20 0 17 -7 20 -45
20 -41 0 -45 2 -45 25 0 23 -4 25 -40 25 -33 0 -40 3 -40 20 0 18 -7 20 -65
20 -58 0 -65 2 -65 20 0 19 -7 20 -100 20 -93 0 -100 1 -100 20 0 20 -7 20
-295 20 -288 0 -295 0 -295 -20z m630 -920 c0 -17 7 -20 40 -20 33 0 40 -3 40
-20 0 -17 7 -20 40 -20 33 0 40 -3 40 -20 0 -15 7 -20 25 -20 18 0 25 -5 25
-20 0 -13 7 -20 20 -20 13 0 20 -7 20 -20 0 -13 7 -20 20 -20 15 0 20 -7 20
-25 0 -18 5 -25 20 -25 13 0 20 -7 20 -20 0 -13 7 -20 20 -20 17 0 20 -7 20
-40 0 -33 3 -40 20 -40 18 0 20 -7 20 -85 0 -84 0 -85 25 -85 l25 0 0 -145 0
-145 -25 0 c-24 0 -25 -3 -25 -60 0 -53 -2 -60 -20 -60 -17 0 -20 -7 -20 -45
0 -38 -3 -45 -20 -45 -17 0 -20 -7 -20 -40 0 -33 -3 -40 -20 -40 -13 0 -20 -7
-20 -20 0 -13 -7 -20 -20 -20 -13 0 -20 -7 -20 -20 0 -13 -7 -20 -20 -20 -15
0 -20 -7 -20 -25 0 -23 -4 -25 -45 -25 -38 0 -45 -3 -45 -20 0 -13 -7 -20 -20
-20 -13 0 -20 -7 -20 -20 0 -18 -7 -20 -60 -20 -53 0 -60 -2 -60 -20 0 -19 -7
-20 -210 -20 -203 0 -210 1 -210 20 0 17 -7 20 -40 20 -33 0 -40 3 -40 20 0
17 -7 20 -45 20 -38 0 -45 3 -45 20 0 17 -7 20 -40 20 -36 0 -40 3 -40 25 0
18 -5 25 -20 25 -13 0 -20 7 -20 20 0 13 -7 20 -20 20 -17 0 -20 7 -20 40 0
36 -2 40 -25 40 -18 0 -25 5 -25 20 0 13 -7 20 -20 20 -17 0 -20 7 -20 45 0
38 -3 45 -20 45 -18 0 -20 7 -20 80 0 73 -2 80 -20 80 -19 0 -20 7 -20 105 0
98 1 105 20 105 18 0 20 7 20 85 0 78 2 85 20 85 17 0 20 7 20 40 0 33 3 40
20 40 17 0 20 7 20 40 0 36 3 40 25 40 20 0 25 5 25 25 0 18 5 25 20 25 13 0
20 7 20 20 0 13 7 20 20 20 13 0 20 7 20 20 0 13 7 20 20 20 13 0 20 7 20 20
0 17 7 20 40 20 33 0 40 3 40 20 0 18 7 20 65 20 58 0 65 2 65 20 0 19 7 20
230 20 223 0 230 -1 230 -20z"/>
<path d="M7050 4690 c0 -19 -7 -20 -105 -20 -98 0 -105 -1 -105 -20 0 -18 -7
-20 -60 -20 -53 0 -60 -2 -60 -20 0 -18 -7 -20 -65 -20 -63 0 -65 -1 -65 -25
0 -22 -4 -25 -40 -25 -33 0 -40 -3 -40 -20 0 -17 -7 -20 -40 -20 -33 0 -40 -3
-40 -20 0 -17 -7 -20 -45 -20 -38 0 -45 -3 -45 -20 0 -13 -7 -20 -20 -20 -13
0 -20 -7 -20 -20 0 -17 -7 -20 -40 -20 -33 0 -40 -3 -40 -20 0 -13 -7 -20 -20
-20 -15 0 -20 -7 -20 -25 0 -20 -5 -25 -25 -25 -18 0 -25 -5 -25 -20 0 -13 -7
-20 -20 -20 -13 0 -20 -7 -20 -20 0 -13 -7 -20 -20 -20 -13 0 -20 -7 -20 -20
0 -13 -7 -20 -20 -20 -13 0 -20 -7 -20 -20 0 -13 -7 -20 -20 -20 -13 0 -20 -7
-20 -20 0 -13 -7 -20 -20 -20 -15 0 -20 -7 -20 -25 0 -20 -5 -25 -25 -25 -18
0 -25 -5 -25 -20 0 -13 -7 -20 -20 -20 -17 0 -20 -7 -20 -40 0 -33 -3 -40 -20
-40 -17 0 -20 -7 -20 -40 0 -33 -3 -40 -20 -40 -17 0 -20 -7 -20 -45 0 -38 -3
-45 -20 -45 -17 0 -20 -7 -20 -40 0 -33 -3 -40 -20 -40 -18 0 -20 -7 -20 -65
0 -63 -1 -65 -25 -65 -24 0 -25 -3 -25 -60 0 -53 -2 -60 -20 -60 -19 0 -20 -7
-20 -165 0 -158 -1 -165 -20 -165 -18 0 -20 -7 -20 -65 0 -58 2 -65 20 -65 19
0 20 -7 20 -165 0 -158 1 -165 20 -165 18 0 20 -7 20 -85 0 -84 0 -85 25 -85
23 0 25 -4 25 -40 0 -33 3 -40 20 -40 18 0 20 -7 20 -65 0 -58 2 -65 20 -65
13 0 20 -7 20 -20 0 -13 7 -20 20 -20 17 0 20 -7 20 -40 0 -33 3 -40 20 -40
17 0 20 -7 20 -45 0 -38 3 -45 20 -45 13 0 20 -7 20 -20 0 -15 7 -20 25 -20
18 0 25 -5 25 -20 0 -13 7 -20 20 -20 13 0 20 -7 20 -20 0 -13 7 -20 20 -20
17 0 20 -7 20 -40 0 -33 3 -40 20 -40 15 0 20 -7 20 -25 0 -22 4 -25 40 -25
33 0 40 -3 40 -20 0 -15 7 -20 25 -20 18 0 25 -5 25 -20 0 -13 7 -20 20 -20
13 0 20 -7 20 -20 0 -13 7 -20 20 -20 13 0 20 -7 20 -20 0 -17 7 -20 40 -20
33 0 40 -3 40 -20 0 -17 7 -20 45 -20 41 0 45 -2 45 -25 0 -22 4 -25 40 -25
33 0 40 -3 40 -20 0 -17 7 -20 40 -20 33 0 40 -3 40 -20 0 -17 7 -20 45 -20
38 0 45 -3 45 -20 0 -18 7 -20 80 -20 73 0 80 -2 80 -20 0 -19 7 -20 105 -20
98 0 105 -1 105 -20 0 -20 7 -20 270 -20 263 0 270 0 270 20 0 19 7 20 105 20
98 0 105 1 105 20 0 18 7 20 85 20 78 0 85 2 85 20 0 17 7 20 40 20 33 0 40 3
40 20 0 17 7 20 40 20 33 0 40 3 40 20 0 17 7 20 45 20 41 0 45 2 45 25 0 23
4 25 40 25 33 0 40 3 40 20 0 17 7 20 40 20 33 0 40 3 40 20 0 15 7 20 25 20
18 0 25 5 25 20 0 13 7 20 20 20 13 0 20 7 20 20 0 13 7 20 20 20 13 0 20 7
20 20 0 17 7 20 40 20 36 0 40 3 40 25 0 18 5 25 20 25 13 0 20 7 20 20 0 15
7 20 25 20 23 0 25 4 25 40 0 33 3 40 20 40 13 0 20 7 20 20 0 13 7 20 20 20
13 0 20 7 20 20 0 13 7 20 20 20 17 0 20 7 20 45 0 38 3 45 20 45 13 0 20 7
20 20 0 13 7 20 20 20 17 0 20 7 20 40 0 36 3 40 25 40 23 0 25 4 25 45 0 38
3 45 20 45 18 0 20 7 20 60 0 53 2 60 20 60 18 0 20 7 20 65 0 58 2 65 20 65
19 0 20 7 20 125 0 118 1 125 20 125 19 0 20 7 20 185 0 178 -1 185 -20 185
-19 0 -20 7 -20 125 0 118 -1 125 -20 125 -18 0 -20 7 -20 65 0 58 -2 65 -20
65 -18 0 -20 7 -20 60 0 53 -2 60 -20 60 -17 0 -20 7 -20 40 0 36 -2 40 -25
40 -23 0 -25 4 -25 45 0 38 -3 45 -20 45 -13 0 -20 7 -20 20 0 13 -7 20 -20
20 -17 0 -20 7 -20 40 0 33 -3 40 -20 40 -13 0 -20 7 -20 20 0 13 -7 20 -20
20 -15 0 -20 7 -20 25 0 18 -5 25 -20 25 -13 0 -20 7 -20 20 0 15 -7 20 -25
20 -22 0 -25 4 -25 40 0 33 -3 40 -20 40 -13 0 -20 7 -20 20 0 17 -7 20 -40
20 -33 0 -40 3 -40 20 0 13 -7 20 -20 20 -15 0 -20 7 -20 25 0 18 -5 25 -20
25 -13 0 -20 7 -20 20 0 15 -7 20 -25 20 -18 0 -25 5 -25 20 0 17 -7 20 -40
20 -33 0 -40 3 -40 20 0 17 -7 20 -40 20 -33 0 -40 3 -40 20 0 17 -7 20 -45
20 -38 0 -45 3 -45 20 0 17 -7 20 -40 20 -36 0 -40 3 -40 25 0 24 -3 25 -60
25 -53 0 -60 2 -60 20 0 18 -7 20 -65 20 -58 0 -65 2 -65 20 0 19 -7 20 -105
20 -98 0 -105 1 -105 20 0 20 -7 20 -270 20 -263 0 -270 0 -270 -20z m460
-960 c0 -18 7 -20 60 -20 53 0 60 -2 60 -20 0 -17 7 -20 45 -20 38 0 45 -3 45
-20 0 -13 7 -20 20 -20 13 0 20 -7 20 -20 0 -17 7 -20 40 -20 36 0 40 -2 40
-25 0 -18 5 -25 20 -25 13 0 20 -7 20 -20 0 -15 7 -20 25 -20 23 0 25 -4 25
-40 0 -33 3 -40 20 -40 17 0 20 -7 20 -40 0 -33 3 -40 20 -40 17 0 20 -7 20
-45 0 -38 3 -45 20 -45 19 0 20 -7 20 -230 0 -223 -1 -230 -20 -230 -18 0 -20
-7 -20 -60 0 -53 -2 -60 -20 -60 -13 0 -20 -7 -20 -20 0 -13 -7 -20 -20 -20
-17 0 -20 -7 -20 -45 0 -41 -2 -45 -25 -45 -18 0 -25 -5 -25 -20 0 -13 -7 -20
-20 -20 -13 0 -20 -7 -20 -20 0 -13 -7 -20 -20 -20 -13 0 -20 -7 -20 -20 0
-17 -7 -20 -40 -20 -33 0 -40 -3 -40 -20 0 -17 -7 -20 -45 -20 -38 0 -45 -3
-45 -20 0 -17 -7 -20 -40 -20 -36 0 -40 -2 -40 -25 l0 -25 -230 0 -230 0 0 25
c0 23 -4 25 -40 25 -33 0 -40 3 -40 20 0 17 -7 20 -40 20 -33 0 -40 3 -40 20
0 17 -7 20 -45 20 -38 0 -45 3 -45 20 0 13 -7 20 -20 20 -13 0 -20 7 -20 20 0
13 -7 20 -20 20 -17 0 -20 7 -20 45 0 38 -3 45 -20 45 -13 0 -20 7 -20 20 0
13 -7 20 -20 20 -17 0 -20 7 -20 40 0 36 -2 40 -25 40 -24 0 -25 2 -25 65 0
58 -2 65 -20 65 -19 0 -20 7 -20 185 0 178 1 185 20 185 18 0 20 7 20 65 0 63
1 65 25 65 23 0 25 4 25 40 0 33 3 40 20 40 13 0 20 7 20 20 0 13 7 20 20 20
17 0 20 7 20 40 0 33 3 40 20 40 15 0 20 7 20 25 0 23 4 25 40 25 33 0 40 3
40 20 0 15 7 20 25 20 18 0 25 5 25 20 0 17 7 20 40 20 33 0 40 3 40 20 0 18
7 20 60 20 53 0 60 2 60 20 0 19 7 20 190 20 183 0 190 -1 190 -20z"/>
<path d="M21130 4690 c0 -18 -7 -20 -80 -20 -73 0 -80 -2 -80 -20 0 -18 -7
-20 -65 -20 -58 0 -65 -2 -65 -20 0 -18 -7 -20 -60 -20 -57 0 -60 -1 -60 -25
0 -23 -4 -25 -45 -25 -38 0 -45 -3 -45 -20 0 -17 -7 -20 -40 -20 -33 0 -40 -3
-40 -20 0 -13 -7 -20 -20 -20 -13 0 -20 -7 -20 -20 0 -17 -7 -20 -40 -20 -33
0 -40 -3 -40 -20 0 -15 -7 -20 -25 -20 -18 0 -25 -5 -25 -20 0 -13 -7 -20 -20
-20 -15 0 -20 -7 -20 -25 0 -18 -5 -25 -20 -25 -13 0 -20 -7 -20 -20 0 -13 -7
-20 -20 -20 -13 0 -20 -7 -20 -20 0 -13 -7 -20 -20 -20 -13 0 -20 -7 -20 -20
0 -13 -7 -20 -20 -20 -13 0 -20 -7 -20 -20 0 -15 -7 -20 -25 -20 -18 0 -25 -5
-25 -20 0 -13 -7 -20 -20 -20 -17 0 -20 -7 -20 -45 0 -38 -3 -45 -20 -45 -13
0 -20 -7 -20 -20 0 -13 -7 -20 -20 -20 -17 0 -20 -7 -20 -40 0 -33 -3 -40 -20
-40 -17 0 -20 -7 -20 -45 0 -38 -3 -45 -20 -45 -17 0 -20 -7 -20 -40 0 -36 -2
-40 -25 -40 -24 0 -25 -3 -25 -60 0 -53 -2 -60 -20 -60 -18 0 -20 -7 -20 -85
0 -78 -2 -85 -20 -85 -19 0 -20 -7 -20 -165 0 -158 -1 -165 -20 -165 -18 0
-20 -7 -20 -85 0 -78 2 -85 20 -85 19 0 20 -7 20 -165 0 -158 1 -165 20 -165
18 0 20 -7 20 -85 0 -78 2 -85 20 -85 17 0 20 -7 20 -40 0 -36 3 -40 25 -40
24 0 25 -2 25 -65 0 -58 2 -65 20 -65 17 0 20 -7 20 -40 0 -33 3 -40 20 -40
13 0 20 -7 20 -20 0 -13 7 -20 20 -20 17 0 20 -7 20 -45 0 -38 3 -45 20 -45
13 0 20 -7 20 -20 0 -13 7 -20 20 -20 17 0 20 -7 20 -40 0 -36 3 -40 25 -40
18 0 25 -5 25 -20 0 -13 7 -20 20 -20 15 0 20 -7 20 -25 0 -18 5 -25 20 -25
13 0 20 -7 20 -20 0 -13 7 -20 20 -20 13 0 20 -7 20 -20 0 -17 7 -20 40 -20
33 0 40 -3 40 -20 0 -15 7 -20 25 -20 18 0 25 -5 25 -20 0 -17 7 -20 40 -20
33 0 40 -3 40 -20 0 -13 7 -20 20 -20 15 0 20 -7 20 -25 0 -22 4 -25 40 -25
33 0 40 -3 40 -20 0 -17 7 -20 45 -20 38 0 45 -3 45 -20 0 -18 7 -20 60 -20
53 0 60 -2 60 -20 0 -18 7 -20 85 -20 78 0 85 -2 85 -20 0 -19 7 -20 125 -20
118 0 125 -1 125 -20 0 -19 7 -20 230 -20 223 0 230 1 230 20 0 19 7 20 125
20 118 0 125 1 125 20 0 18 7 20 80 20 73 0 80 2 80 20 0 17 7 20 45 20 38 0
45 3 45 20 0 18 7 20 60 20 53 0 60 2 60 20 0 17 7 20 45 20 41 0 45 2 45 25
0 23 4 25 40 25 33 0 40 3 40 20 0 13 7 20 20 20 13 0 20 7 20 20 0 17 7 20
40 20 33 0 40 3 40 20 0 15 7 20 25 20 18 0 25 5 25 20 0 13 7 20 20 20 13 0
20 7 20 20 0 13 7 20 20 20 15 0 20 7 20 25 0 18 5 25 20 25 13 0 20 7 20 20
0 13 7 20 20 20 13 0 20 7 20 20 0 13 7 20 20 20 13 0 20 7 20 20 0 15 7 20
25 20 18 0 25 5 25 20 0 13 7 20 20 20 17 0 20 7 20 45 0 38 -3 45 -20 45 -13
0 -20 7 -20 20 0 15 -7 20 -25 20 -18 0 -25 5 -25 20 0 17 -7 20 -40 20 -33 0
-40 3 -40 20 0 13 -7 20 -20 20 -13 0 -20 7 -20 20 0 13 -7 20 -20 20 -13 0
-20 7 -20 20 0 17 -7 20 -45 20 -41 0 -45 2 -45 25 0 18 -5 25 -20 25 -13 0
-20 7 -20 20 0 17 -7 20 -40 20 -33 0 -40 3 -40 20 0 13 -7 20 -20 20 -13 0
-20 7 -20 20 0 17 -7 20 -45 20 -38 0 -45 3 -45 20 0 13 -7 20 -20 20 -13 0
-20 7 -20 20 0 17 -7 20 -40 20 -36 0 -40 3 -40 25 0 18 -5 25 -20 25 -13 0
-20 7 -20 20 0 13 -7 20 -20 20 -17 0 -20 -7 -20 -45 0 -41 -2 -45 -25 -45
-22 0 -25 -4 -25 -40 0 -33 -3 -40 -20 -40 -13 0 -20 -7 -20 -20 0 -13 -7 -20
-20 -20 -13 0 -20 -7 -20 -20 0 -13 -7 -20 -20 -20 -13 0 -20 -7 -20 -20 0
-13 -7 -20 -20 -20 -15 0 -20 -7 -20 -25 0 -18 -5 -25 -20 -25 -13 0 -20 -7
-20 -20 0 -17 -7 -20 -45 -20 -38 0 -45 -3 -45 -20 0 -17 -7 -20 -40 -20 -33
0 -40 -3 -40 -20 0 -19 -7 -20 -250 -20 -243 0 -250 1 -250 20 0 17 -7 20 -40
20 -33 0 -40 3 -40 20 0 17 -7 20 -45 20 -38 0 -45 3 -45 20 0 13 -7 20 -20
20 -15 0 -20 7 -20 25 0 18 -5 25 -20 25 -13 0 -20 7 -20 20 0 13 -7 20 -20
20 -13 0 -20 7 -20 20 0 13 -7 20 -20 20 -13 0 -20 7 -20 20 0 15 -7 20 -25
20 -24 0 -25 2 -25 65 0 58 -2 65 -20 65 -18 0 -20 7 -20 80 l0 80 1105 0
1105 0 0 315 c0 308 0 315 -20 315 -19 0 -20 7 -20 105 0 98 -1 105 -20 105
-18 0 -20 7 -20 60 0 53 -2 60 -20 60 -18 0 -20 7 -20 65 0 63 -1 65 -25 65
-22 0 -25 4 -25 40 0 33 -3 40 -20 40 -17 0 -20 7 -20 40 0 33 -3 40 -20 40
-13 0 -20 7 -20 20 0 13 -7 20 -20 20 -17 0 -20 7 -20 45 0 38 -3 45 -20 45
-13 0 -20 7 -20 20 0 13 -7 20 -20 20 -13 0 -20 7 -20 20 0 15 -7 20 -25 20
-18 0 -25 5 -25 20 0 13 -7 20 -20 20 -13 0 -20 7 -20 20 0 13 -7 20 -20 20
-15 0 -20 7 -20 25 0 18 -5 25 -20 25 -13 0 -20 7 -20 20 0 13 -7 20 -20 20
-13 0 -20 7 -20 20 0 17 -7 20 -45 20 -38 0 -45 3 -45 20 0 13 -7 20 -20 20
-13 0 -20 7 -20 20 0 17 -7 20 -40 20 -33 0 -40 3 -40 20 0 17 -7 20 -40 20
-36 0 -40 3 -40 25 0 23 -4 25 -45 25 -38 0 -45 3 -45 20 0 18 -7 20 -60 20
-53 0 -60 2 -60 20 0 19 -7 20 -105 20 -98 0 -105 1 -105 20 0 20 -7 20 -315
20 -308 0 -315 0 -315 -20z m460 -790 c0 -18 7 -20 65 -20 58 0 65 -2 65 -20
0 -17 7 -20 40 -20 36 0 40 -2 40 -25 0 -18 5 -25 20 -25 13 0 20 -7 20 -20 0
-13 7 -20 20 -20 17 0 20 -7 20 -40 0 -36 3 -40 25 -40 23 0 25 -4 25 -40 0
-33 3 -40 20 -40 18 0 20 -7 20 -65 0 -58 2 -65 20 -65 17 0 20 -7 20 -40 l0
-40 -585 0 -585 0 0 40 c0 33 3 40 20 40 18 0 20 7 20 65 0 63 1 65 25 65 23
0 25 4 25 40 0 33 3 40 20 40 13 0 20 7 20 20 0 13 7 20 20 20 13 0 20 7 20
20 0 13 7 20 20 20 13 0 20 7 20 20 0 13 7 20 20 20 15 0 20 7 20 25 0 23 4
25 45 25 38 0 45 3 45 20 0 18 7 20 60 20 53 0 60 2 60 20 0 19 7 20 145 20
138 0 145 -1 145 -20z"/>
<path d="M26510 4690 c0 -18 -7 -20 -85 -20 -78 0 -85 -2 -85 -20 0 -18 -7
-20 -60 -20 -53 0 -60 -2 -60 -20 0 -18 -7 -20 -65 -20 -63 0 -65 -1 -65 -25
0 -22 -4 -25 -40 -25 -33 0 -40 -3 -40 -20 0 -17 -7 -20 -40 -20 -33 0 -40 -3
-40 -20 0 -15 -7 -20 -25 -20 -18 0 -25 -5 -25 -20 0 -17 -7 -20 -40 -20 -33
0 -40 -3 -40 -20 0 -13 -7 -20 -20 -20 -13 0 -20 -7 -20 -20 0 -13 -7 -20 -20
-20 -15 0 -20 -7 -20 -25 0 -18 -5 -25 -20 -25 -13 0 -20 -7 -20 -20 0 -15 -7
-20 -25 -20 -18 0 -25 -5 -25 -20 0 -13 -7 -20 -20 -20 -13 0 -20 -7 -20 -20
0 -13 -7 -20 -20 -20 -13 0 -20 -7 -20 -20 0 -13 -7 -20 -20 -20 -13 0 -20 -7
-20 -20 0 -13 -7 -20 -20 -20 -17 0 -20 -7 -20 -45 0 -38 -3 -45 -20 -45 -13
0 -20 -7 -20 -20 0 -15 -7 -20 -25 -20 -22 0 -25 -4 -25 -40 0 -33 -3 -40 -20
-40 -17 0 -20 -7 -20 -45 0 -38 -3 -45 -20 -45 -17 0 -20 -7 -20 -40 0 -33 -3
-40 -20 -40 -18 0 -20 -7 -20 -60 0 -53 -2 -60 -20 -60 -18 0 -20 -7 -20 -85
0 -78 -2 -85 -20 -85 -19 0 -20 -7 -20 -190 l0 -190 -25 0 c-18 0 -25 -5 -25
-20 0 -15 7 -20 25 -20 l25 0 0 -185 c0 -178 1 -185 20 -185 18 0 20 -7 20
-85 0 -78 2 -85 20 -85 18 0 20 -7 20 -60 0 -53 2 -60 20 -60 17 0 20 -7 20
-45 0 -38 3 -45 20 -45 17 0 20 -7 20 -40 0 -33 3 -40 20 -40 17 0 20 -7 20
-40 0 -36 3 -40 25 -40 23 0 25 -4 25 -45 0 -38 3 -45 20 -45 13 0 20 -7 20
-20 0 -13 7 -20 20 -20 13 0 20 -7 20 -20 0 -13 7 -20 20 -20 17 0 20 -7 20
-40 0 -33 3 -40 20 -40 15 0 20 -7 20 -25 0 -18 5 -25 20 -25 13 0 20 -7 20
-20 0 -15 7 -20 25 -20 18 0 25 -5 25 -20 0 -17 7 -20 40 -20 33 0 40 -3 40
-20 0 -13 7 -20 20 -20 13 0 20 -7 20 -20 0 -13 7 -20 20 -20 13 0 20 -7 20
-20 0 -17 7 -20 45 -20 41 0 45 -2 45 -25 0 -22 4 -25 40 -25 33 0 40 -3 40
-20 0 -17 7 -20 40 -20 33 0 40 -3 40 -20 0 -17 7 -20 45 -20 38 0 45 -3 45
-20 0 -18 7 -20 80 -20 73 0 80 -2 80 -20 0 -19 7 -20 105 -20 98 0 105 -1
105 -20 0 -19 7 -20 210 -20 203 0 210 1 210 20 0 19 7 20 125 20 118 0 125 1
125 20 0 18 7 20 80 20 73 0 80 2 80 20 0 17 7 20 45 20 38 0 45 3 45 20 0 17
7 20 40 20 33 0 40 3 40 20 0 17 7 20 40 20 36 0 40 3 40 25 0 20 5 25 25 25
18 0 25 5 25 20 0 17 7 20 40 20 33 0 40 -3 40 -20 0 -17 7 -20 40 -20 36 0
40 -2 40 -25 0 -18 5 -25 20 -25 13 0 20 -7 20 -20 0 -15 7 -20 25 -20 18 0
25 -5 25 -20 0 -17 7 -20 40 -20 33 0 40 -3 40 -20 0 -18 7 -20 60 -20 53 0
60 -2 60 -20 0 -18 7 -20 65 -20 58 0 65 -2 65 -20 0 -19 7 -20 185 -20 l185
0 0 1625 0 1625 -40 0 c-36 0 -40 -2 -40 -25 0 -25 -1 -25 -85 -25 -78 0 -85
-2 -85 -20 0 -18 -7 -20 -80 -20 -73 0 -80 -2 -80 -20 0 -18 -7 -20 -85 -20
-78 0 -85 -2 -85 -20 0 -18 -7 -20 -85 -20 -78 0 -85 -2 -85 -20 0 -17 -7 -20
-40 -20 -33 0 -40 3 -40 20 0 17 -7 20 -40 20 -33 0 -40 3 -40 20 0 13 -7 20
-20 20 -13 0 -20 7 -20 20 0 17 -7 20 -45 20 -38 0 -45 3 -45 20 0 17 -7 20
-40 20 -36 0 -40 3 -40 25 0 23 -4 25 -40 25 -33 0 -40 3 -40 20 0 18 -7 20
-65 20 -58 0 -65 2 -65 20 0 19 -7 20 -105 20 -98 0 -105 1 -105 20 0 20 -7
20 -290 20 -283 0 -290 0 -290 -20z m670 -960 c0 -17 7 -20 40 -20 33 0 40 -3
40 -20 0 -17 7 -20 40 -20 33 0 40 -3 40 -20 0 -13 7 -20 20 -20 13 0 20 -7
20 -20 0 -17 7 -20 45 -20 41 0 45 -2 45 -25 0 -18 5 -25 20 -25 17 0 20 -7
20 -40 0 -33 3 -40 20 -40 13 0 20 -7 20 -20 0 -13 7 -20 20 -20 17 0 20 -7
20 -40 0 -33 3 -40 20 -40 18 0 20 -7 20 -65 0 -63 1 -65 25 -65 l25 0 0 -185
0 -185 -25 0 c-24 0 -25 -2 -25 -65 0 -58 -2 -65 -20 -65 -17 0 -20 -7 -20
-40 0 -33 -3 -40 -20 -40 -13 0 -20 -7 -20 -20 0 -13 -7 -20 -20 -20 -15 0
-20 -7 -20 -25 0 -18 -5 -25 -20 -25 -13 0 -20 -7 -20 -20 0 -13 -7 -20 -20
-20 -13 0 -20 -7 -20 -20 0 -15 -7 -20 -25 -20 -18 0 -25 -5 -25 -20 0 -13 -7
-20 -20 -20 -13 0 -20 -7 -20 -20 0 -17 -7 -20 -40 -20 -33 0 -40 -3 -40 -20
0 -18 -7 -20 -65 -20 -63 0 -65 -1 -65 -25 l0 -25 -205 0 -205 0 0 25 c0 24
-2 25 -65 25 -58 0 -65 2 -65 20 0 17 -7 20 -40 20 -33 0 -40 3 -40 20 0 13
-7 20 -20 20 -13 0 -20 7 -20 20 0 13 -7 20 -20 20 -13 0 -20 7 -20 20 0 15
-7 20 -25 20 -18 0 -25 5 -25 20 0 13 -7 20 -20 20 -15 0 -20 7 -20 25 0 18
-5 25 -20 25 -17 0 -20 7 -20 40 0 33 -3 40 -20 40 -17 0 -20 7 -20 40 0 33
-3 40 -20 40 -18 0 -20 7 -20 65 0 58 -2 65 -20 65 -19 0 -20 7 -20 145 0 138
1 145 20 145 18 0 20 7 20 60 0 53 2 60 20 60 18 0 20 7 20 65 0 58 2 65 20
65 13 0 20 7 20 20 0 13 7 20 20 20 13 0 20 7 20 20 0 13 7 20 20 20 13 0 20
7 20 20 0 15 7 20 25 20 20 0 25 5 25 25 0 18 5 25 20 25 13 0 20 7 20 20 0
13 7 20 20 20 13 0 20 7 20 20 0 17 7 20 40 20 33 0 40 3 40 20 0 18 7 20 65
20 58 0 65 2 65 20 0 19 7 20 230 20 223 0 230 -1 230 -20z"/>
<path d="M30470 4690 c0 -19 -7 -20 -105 -20 -98 0 -105 -1 -105 -20 0 -18 -7
-20 -65 -20 -58 0 -65 -2 -65 -20 0 -17 -7 -20 -40 -20 -36 0 -40 -2 -40 -25
0 -22 -4 -25 -40 -25 -33 0 -40 -3 -40 -20 0 -17 -7 -20 -45 -20 -38 0 -45 -3
-45 -20 0 -17 -7 -20 -40 -20 -33 0 -40 -3 -40 -20 0 -19 -7 -20 -105 -20 -98
0 -105 1 -105 20 0 18 -7 20 -80 20 -73 0 -80 2 -80 20 0 18 -7 20 -85 20 -78
0 -85 2 -85 20 0 18 -7 20 -85 20 -84 0 -85 0 -85 25 0 23 -4 25 -40 25 l-40
0 0 -2230 0 -2230 480 0 c473 0 480 0 480 20 0 13 7 20 20 20 20 0 20 7 20
645 0 638 0 645 -20 645 -13 0 -20 7 -20 20 0 18 7 20 60 20 53 0 60 -2 60
-20 0 -17 7 -20 45 -20 38 0 45 -3 45 -20 0 -18 7 -20 80 -20 73 0 80 -2 80
-20 0 -19 7 -20 105 -20 98 0 105 -1 105 -20 0 -19 7 -20 210 -20 203 0 210 1
210 20 0 19 7 20 125 20 118 0 125 1 125 20 0 18 7 20 80 20 73 0 80 2 80 20
0 17 7 20 45 20 38 0 45 3 45 20 0 18 7 20 60 20 53 0 60 2 60 20 0 13 7 20
20 20 15 0 20 7 20 25 0 23 4 25 45 25 38 0 45 3 45 20 0 17 7 20 40 20 33 0
40 3 40 20 0 13 7 20 20 20 13 0 20 7 20 20 0 13 7 20 20 20 13 0 20 7 20 20
0 15 7 20 25 20 18 0 25 5 25 20 0 13 7 20 20 20 15 0 20 7 20 25 0 18 5 25
20 25 13 0 20 7 20 20 0 13 7 20 20 20 13 0 20 7 20 20 0 13 7 20 20 20 13 0
20 7 20 20 0 13 7 20 20 20 13 0 20 7 20 20 0 15 7 20 25 20 23 0 25 4 25 45
0 38 3 45 20 45 13 0 20 7 20 20 0 13 7 20 20 20 17 0 20 7 20 40 0 33 3 40
20 40 17 0 20 7 20 40 0 33 3 40 20 40 18 0 20 7 20 65 0 58 2 65 20 65 18 0
20 7 20 60 0 57 1 60 25 60 l25 0 0 105 c0 98 1 105 20 105 20 0 20 7 20 295
0 288 0 295 -20 295 -19 0 -20 7 -20 100 l0 100 -25 0 c-24 0 -25 2 -25 65 0
58 -2 65 -20 65 -17 0 -20 7 -20 40 0 33 -3 40 -20 40 -17 0 -20 7 -20 45 0
38 -3 45 -20 45 -17 0 -20 7 -20 40 0 33 -3 40 -20 40 -17 0 -20 7 -20 40 0
33 -3 40 -20 40 -13 0 -20 7 -20 20 0 15 -7 20 -25 20 -20 0 -25 5 -25 25 0
18 -5 25 -20 25 -17 0 -20 7 -20 40 0 33 -3 40 -20 40 -13 0 -20 7 -20 20 0
13 -7 20 -20 20 -13 0 -20 7 -20 20 0 13 -7 20 -20 20 -13 0 -20 7 -20 20 0
13 -7 20 -20 20 -15 0 -20 7 -20 25 0 23 -4 25 -45 25 -38 0 -45 3 -45 20 0
13 -7 20 -20 20 -13 0 -20 7 -20 20 0 13 -7 20 -20 20 -13 0 -20 7 -20 20 0
17 -7 20 -40 20 -33 0 -40 3 -40 20 0 17 -7 20 -45 20 -38 0 -45 3 -45 20 0
17 -7 20 -40 20 -36 0 -40 3 -40 25 0 24 -2 25 -65 25 -58 0 -65 2 -65 20 0
18 -7 20 -60 20 -53 0 -60 2 -60 20 0 18 -7 20 -85 20 -78 0 -85 2 -85 20 0
20 -7 20 -310 20 -303 0 -310 0 -310 -20z m500 -960 c0 -17 7 -20 40 -20 33 0
40 -3 40 -20 0 -17 7 -20 40 -20 33 0 40 -3 40 -20 0 -15 7 -20 25 -20 18 0
25 -5 25 -20 0 -13 7 -20 20 -20 15 0 20 -7 20 -25 0 -18 5 -25 20 -25 13 0
20 -7 20 -20 0 -13 7 -20 20 -20 13 0 20 -7 20 -20 0 -13 7 -20 20 -20 17 0
20 -7 20 -40 0 -33 3 -40 20 -40 17 0 20 -7 20 -45 0 -41 2 -45 25 -45 l25 0
0 -250 0 -250 -25 0 c-24 0 -25 -3 -25 -60 0 -53 -2 -60 -20 -60 -17 0 -20 -7
-20 -40 0 -33 -3 -40 -20 -40 -15 0 -20 -7 -20 -25 0 -18 -5 -25 -20 -25 -13
0 -20 -7 -20 -20 0 -13 -7 -20 -20 -20 -13 0 -20 -7 -20 -20 0 -13 -7 -20 -20
-20 -13 0 -20 -7 -20 -20 0 -17 -7 -20 -45 -20 -38 0 -45 -3 -45 -20 0 -13 -7
-20 -20 -20 -13 0 -20 -7 -20 -20 0 -18 -7 -20 -60 -20 -57 0 -60 -1 -60 -25
l0 -25 -210 0 -210 0 0 25 c0 24 -2 25 -65 25 -58 0 -65 2 -65 20 0 17 -7 20
-40 20 -33 0 -40 3 -40 20 0 13 -7 20 -20 20 -13 0 -20 7 -20 20 0 17 -7 20
-40 20 -33 0 -40 3 -40 20 0 15 -7 20 -25 20 -23 0 -25 4 -25 45 0 38 -3 45
-20 45 -13 0 -20 7 -20 20 0 13 -7 20 -20 20 -17 0 -20 7 -20 40 0 33 -3 40
-20 40 -18 0 -20 7 -20 65 0 58 -2 65 -20 65 -19 0 -20 7 -20 185 0 178 1 185
20 185 18 0 20 7 20 65 0 58 2 65 20 65 17 0 20 7 20 40 0 33 3 40 20 40 17 0
20 7 20 40 0 33 3 40 20 40 13 0 20 7 20 20 0 15 7 20 25 20 20 0 25 5 25 25
0 18 5 25 20 25 13 0 20 7 20 20 0 17 7 20 40 20 33 0 40 3 40 20 0 13 7 20
20 20 13 0 20 7 20 20 0 18 7 20 65 20 58 0 65 2 65 20 0 19 7 20 250 20 243
0 250 -1 250 -20z"/>
<path d="M3720 3025 c0 -1558 0 -1565 20 -1565 13 0 20 -7 20 -20 0 -20 7 -20
480 -20 l480 0 0 1165 c0 1158 0 1165 20 1165 13 0 20 7 20 20 0 17 7 20 40
20 33 0 40 -3 40 -20 0 -19 7 -20 170 -20 163 0 170 1 170 20 0 18 7 20 60 20
57 0 60 1 60 25 0 24 2 25 65 25 58 0 65 2 65 20 0 13 7 20 20 20 13 0 20 7
20 20 0 13 7 20 20 20 13 0 20 7 20 20 0 17 7 20 40 20 33 0 40 3 40 20 0 13
7 20 20 20 13 0 20 7 20 20 0 15 7 20 25 20 23 0 25 4 25 45 0 38 3 45 20 45
13 0 20 7 20 20 0 13 7 20 20 20 18 0 20 7 20 60 0 53 2 60 20 60 18 0 20 7
20 65 0 58 2 65 20 65 18 0 20 7 20 85 l0 85 -1060 0 -1060 0 0 -1565z"/>
<path d="M23340 3005 l0 -1585 480 0 c473 0 480 0 480 20 0 13 7 20 20 20 20
0 20 7 20 1165 l0 1165 45 0 c38 0 45 -3 45 -20 0 -19 7 -20 165 -20 158 0
165 1 165 20 0 18 7 20 85 20 84 0 85 0 85 25 0 23 4 25 40 25 33 0 40 3 40
20 0 13 7 20 20 20 13 0 20 7 20 20 0 17 7 20 40 20 33 0 40 3 40 20 0 15 7
20 25 20 18 0 25 5 25 20 0 13 7 20 20 20 13 0 20 7 20 20 0 13 7 20 20 20 15
0 20 7 20 25 0 18 5 25 20 25 17 0 20 7 20 40 0 33 3 40 20 40 17 0 20 7 20
40 0 33 3 40 20 40 18 0 20 7 20 65 0 63 1 65 25 65 l25 0 0 105 0 105 -1045
0 -1045 0 0 -1585z"/>
<path d="M32260 4545 c0 -38 3 -45 20 -45 18 0 20 -7 20 -60 0 -53 2 -60 20
-60 17 0 20 -7 20 -45 0 -38 3 -45 20 -45 18 0 20 -7 20 -60 0 -57 1 -60 25
-60 24 0 25 -2 25 -65 0 -58 2 -65 20 -65 17 0 20 -7 20 -40 0 -33 3 -40 20
-40 18 0 20 -7 20 -60 0 -53 2 -60 20 -60 17 0 20 -7 20 -45 0 -38 3 -45 20
-45 18 0 20 -7 20 -60 0 -53 2 -60 20 -60 18 0 20 -7 20 -65 0 -63 1 -65 25
-65 23 0 25 -4 25 -40 0 -33 3 -40 20 -40 18 0 20 -7 20 -65 0 -58 2 -65 20
-65 17 0 20 -7 20 -40 0 -33 3 -40 20 -40 18 0 20 -7 20 -60 0 -53 2 -60 20
-60 18 0 20 -7 20 -65 0 -58 2 -65 20 -65 17 0 20 -7 20 -40 0 -36 3 -40 25
-40 24 0 25 -2 25 -65 0 -58 2 -65 20 -65 18 0 20 -7 20 -60 0 -53 2 -60 20
-60 17 0 20 -7 20 -45 0 -38 3 -45 20 -45 18 0 20 -7 20 -60 0 -53 2 -60 20
-60 17 0 20 -7 20 -40 0 -33 3 -40 20 -40 18 0 20 -7 20 -65 0 -63 1 -65 25
-65 24 0 25 -3 25 -60 0 -53 2 -60 20 -60 17 0 20 -7 20 -45 0 -38 3 -45 20
-45 18 0 20 -7 20 -60 0 -53 2 -60 20 -60 18 0 20 -7 20 -65 0 -58 2 -65 20
-65 17 0 20 -7 20 -40 0 -33 3 -40 20 -40 17 0 20 -7 20 -40 l0 -40 125 0 125
0 0 -45 c0 -38 -3 -45 -20 -45 -18 0 -20 -7 -20 -60 0 -53 -2 -60 -20 -60 -17
0 -20 -7 -20 -45 0 -38 -3 -45 -20 -45 -13 0 -20 -7 -20 -20 0 -13 -7 -20 -20
-20 -13 0 -20 -7 -20 -20 0 -13 -7 -20 -20 -20 -13 0 -20 -7 -20 -20 0 -15 -7
-20 -25 -20 -18 0 -25 -5 -25 -20 0 -13 -7 -20 -20 -20 -13 0 -20 -7 -20 -20
0 -20 -7 -20 -455 -20 l-455 0 0 -480 0 -480 580 0 c573 0 580 0 580 20 0 18
7 20 85 20 78 0 85 2 85 20 0 18 7 20 60 20 53 0 60 2 60 20 0 17 7 20 45 20
38 0 45 3 45 20 0 17 7 20 40 20 36 0 40 3 40 25 0 18 5 25 20 25 13 0 20 7
20 20 0 13 7 20 20 20 13 0 20 7 20 20 0 15 7 20 25 20 18 0 25 5 25 20 0 13
7 20 20 20 13 0 20 7 20 20 0 13 7 20 20 20 17 0 20 7 20 45 0 38 3 45 20 45
13 0 20 7 20 20 0 13 7 20 20 20 17 0 20 7 20 40 0 33 3 40 20 40 17 0 20 7
20 40 0 36 3 40 25 40 23 0 25 4 25 45 0 38 3 45 20 45 18 0 20 7 20 60 0 53
2 60 20 60 17 0 20 7 20 45 0 38 3 45 20 45 18 0 20 7 20 60 0 53 2 60 20 60
18 0 20 7 20 65 0 58 2 65 20 65 17 0 20 7 20 40 0 36 3 40 25 40 24 0 25 3
25 60 0 53 2 60 20 60 18 0 20 7 20 65 0 58 2 65 20 65 17 0 20 7 20 40 0 33
3 40 20 40 18 0 20 7 20 65 0 58 2 65 20 65 18 0 20 7 20 60 0 53 2 60 20 60
17 0 20 7 20 45 0 41 2 45 25 45 24 0 25 3 25 60 0 53 2 60 20 60 18 0 20 7
20 65 0 58 2 65 20 65 17 0 20 7 20 40 0 33 3 40 20 40 18 0 20 7 20 60 0 53
2 60 20 60 18 0 20 7 20 65 0 58 2 65 20 65 17 0 20 7 20 40 0 36 3 40 25 40
24 0 25 2 25 65 0 58 2 65 20 65 18 0 20 7 20 60 0 53 2 60 20 60 17 0 20 7
20 45 0 38 3 45 20 45 18 0 20 7 20 60 0 53 2 60 20 60 18 0 20 7 20 65 0 58
2 65 20 65 17 0 20 7 20 40 0 36 3 40 25 40 24 0 25 3 25 60 0 53 2 60 20 60
18 0 20 7 20 65 0 58 2 65 20 65 17 0 20 7 20 40 0 33 3 40 20 40 18 0 20 7
20 65 0 58 2 65 20 65 18 0 20 7 20 60 0 53 2 60 20 60 17 0 20 7 20 45 0 41
2 45 25 45 24 0 25 3 25 60 0 53 2 60 20 60 18 0 20 7 20 65 0 58 2 65 20 65
17 0 20 7 20 40 0 33 3 40 20 40 18 0 20 7 20 60 0 53 2 60 20 60 15 0 20 7
20 25 l0 25 -540 0 -540 0 0 -25 c0 -18 -5 -25 -20 -25 -17 0 -20 -7 -20 -40
0 -33 -3 -40 -20 -40 -18 0 -20 -7 -20 -60 0 -57 -1 -60 -25 -60 -24 0 -25 -2
-25 -65 0 -58 -2 -65 -20 -65 -18 0 -20 -7 -20 -60 0 -53 -2 -60 -20 -60 -18
0 -20 -7 -20 -65 0 -58 -2 -65 -20 -65 -18 0 -20 -7 -20 -60 0 -53 -2 -60 -20
-60 -18 0 -20 -7 -20 -65 0 -58 -2 -65 -20 -65 -18 0 -20 -7 -20 -60 0 -57 -1
-60 -25 -60 -24 0 -25 -2 -25 -65 0 -58 -2 -65 -20 -65 -18 0 -20 -7 -20 -60
0 -53 -2 -60 -20 -60 -18 0 -20 -7 -20 -65 0 -58 -2 -65 -20 -65 -17 0 -20 -7
-20 -40 0 -33 -3 -40 -20 -40 -18 0 -20 -7 -20 -65 0 -58 -2 -65 -20 -65 -18
0 -20 -7 -20 -60 0 -57 -1 -60 -25 -60 -24 0 -25 -2 -25 -65 0 -58 -2 -65 -20
-65 -18 0 -20 -7 -20 -60 l0 -60 -40 0 -40 0 0 60 c0 53 -2 60 -20 60 -18 0
-20 7 -20 65 0 58 -2 65 -20 65 -18 0 -20 7 -20 60 0 57 -1 60 -25 60 -24 0
-25 2 -25 65 0 58 -2 65 -20 65 -18 0 -20 7 -20 60 0 53 -2 60 -20 60 -17 0
-20 7 -20 45 0 38 -3 45 -20 45 -18 0 -20 7 -20 60 0 53 -2 60 -20 60 -18 0
-20 7 -20 65 0 58 -2 65 -20 65 -18 0 -20 7 -20 60 0 57 -1 60 -25 60 -24 0
-25 2 -25 65 0 58 -2 65 -20 65 -18 0 -20 7 -20 60 0 53 -2 60 -20 60 -18 0
-20 7 -20 65 0 58 -2 65 -20 65 -18 0 -20 7 -20 60 0 53 -2 60 -20 60 -18 0
-20 7 -20 65 0 58 -2 65 -20 65 -18 0 -20 7 -20 60 0 57 -1 60 -25 60 -24 0
-25 2 -25 65 l0 65 -560 0 -560 0 0 -45z"/>
</g>
</svg>
